# xmcd
#
# Track frame offsets:
#	150
#	16501
#	34742
#	57654
#	73439
#	92773
#	107468
#	123272
#	138165
#	155037
#	169048
#	188558
#
# Disc length: 2682 seconds
#
# Revision: 1
# Processed by: cddbd v1.5.2PL0 Copyright (c) Steve Scherf et al.
# Submitted via: audiograbber 1.83.01
#
DISCID=9b0a780c
DTITLE=Graeme Connors - North
DYEAR=2014
DGENRE=Country
TTITLE0=A Little Further North Each Year
TTITLE1=Mango Shade
TTITLE2=Let The Canefields Burn
TTITLE3=So Father Uluru Says
TTITLE4=Sicilian Born
TTITLE5=Cyclone Season
TTITLE6=The Metho Man
TTITLE7=A Blessing In Disguise
TTITLE8=A Heartache (Or Two)
TTITLE9=The More I See Of You
TTITLE10=On The Edge Of Paradise
TTITLE11=Our True Native Son
EXTD=
EXTT0=
EXTT1=
EXTT2=
EXTT3=
EXTT4=
EXTT5=
EXTT6=
EXTT7=
EXTT8=
EXTT9=
EXTT10=
EXTT11=
PLAYORDER=
